<svg width="41" height="40" viewBox="0 0 41 40" fill="none" xmlns="http://www.w3.org/2000/svg">
<rect x="0.914062" y="0.5" width="39" height="39" rx="6.16667" fill="white"/>
<rect x="0.914062" y="0.5" width="39" height="39" rx="6.16667" stroke="black"/>
<path d="M29.3064 24.4446V15.5557L32.6398 24.4446V15.5557M8.19531 15.5557H11.5286V22.7779C11.5286 23.2199 11.3531 23.6438 11.0405 23.9564C10.7279 24.269 10.304 24.4446 9.86198 24.4446C9.41995 24.4446 8.99603 24.269 8.68347 23.9564C8.37091 23.6438 8.19531 23.2199 8.19531 22.7779V22.2223M14.862 23.3334C14.862 23.6281 14.979 23.9107 15.1874 24.1191C15.3958 24.3275 15.6784 24.4446 15.9731 24.4446H17.0842C17.3789 24.4446 17.6615 24.3275 17.8699 24.1191C18.0782 23.9107 18.1953 23.6281 18.1953 23.3334V21.1112C18.1953 20.8165 18.0782 20.5339 17.8699 20.3255C17.6615 20.1172 17.3789 20.0001 17.0842 20.0001H15.9731C15.6784 20.0001 15.3958 19.883 15.1874 19.6747C14.979 19.4663 14.862 19.1837 14.862 18.889V16.6668C14.862 16.3721 14.979 16.0895 15.1874 15.8811C15.3958 15.6727 15.6784 15.5557 15.9731 15.5557H17.0842C17.3789 15.5557 17.6615 15.6727 17.8699 15.8811C18.0782 16.0895 18.1953 16.3721 18.1953 16.6668M23.7509 15.5557C24.3402 15.5557 24.9055 15.7898 25.3222 16.2065C25.739 16.6233 25.9731 17.1885 25.9731 17.7779V22.2223C25.9731 22.8117 25.739 23.3769 25.3222 23.7937C24.9055 24.2104 24.3402 24.4446 23.7509 24.4446C23.1615 24.4446 22.5963 24.2104 22.1795 23.7937C21.7628 23.3769 21.5286 22.8117 21.5286 22.2223V17.7779C21.5286 17.1885 21.7628 16.6233 22.1795 16.2065C22.5963 15.7898 23.1615 15.5557 23.7509 15.5557Z" stroke="#0F172A" stroke-width="2.22222" stroke-linecap="round" stroke-linejoin="round"/>
</svg>
