<svg width="50" height="50" viewBox="0 0 50 50" fill="none" xmlns="http://www.w3.org/2000/svg">
<g filter="url(#filter0_d_138_936)">
<rect width="48" height="48" rx="4" fill="#F6D35A"/>
<rect x="0.5" y="0.5" width="47" height="47" rx="3.5" stroke="white"/>
<path d="M36.9988 14.9762C36.9984 14.9577 36.9974 14.9392 36.996 14.9208C36.9948 14.9057 36.9933 14.8908 36.9915 14.8759C36.9894 14.8587 36.9867 14.8415 36.9836 14.8243C36.9809 14.8088 36.9779 14.7934 36.9745 14.7782C36.9708 14.7619 36.9665 14.7458 36.962 14.7296C36.9576 14.7142 36.9532 14.699 36.9482 14.6839C36.9429 14.6681 36.9371 14.6526 36.931 14.6371C36.9253 14.6223 36.9194 14.6076 36.913 14.5932C36.9061 14.5779 36.8987 14.563 36.8912 14.548C36.884 14.5338 36.8766 14.5198 36.8688 14.506C36.8606 14.4917 36.852 14.4777 36.8431 14.4638C36.8342 14.4497 36.8249 14.4359 36.8153 14.4223C36.8063 14.4095 36.7968 14.397 36.7871 14.3846C36.7761 14.3705 36.7648 14.3569 36.7531 14.3435C36.7476 14.3372 36.7429 14.3305 36.7372 14.3243C36.7324 14.319 36.727 14.3146 36.7221 14.3095C36.7101 14.2968 36.6976 14.2847 36.6849 14.2727C36.6731 14.2616 36.6612 14.2506 36.649 14.2401C36.637 14.2299 36.6246 14.2202 36.6121 14.2105C36.5984 14.1998 36.5848 14.1893 36.5707 14.1795C36.5585 14.171 36.5459 14.1631 36.5333 14.1551C36.5184 14.1457 36.5036 14.1364 36.4883 14.1278C36.475 14.1204 36.4614 14.1136 36.4478 14.1068C36.4327 14.0992 36.4177 14.0916 36.4023 14.0849C36.3874 14.0783 36.3721 14.0726 36.3567 14.0667C36.342 14.0611 36.3274 14.0554 36.3125 14.0505C36.2963 14.0452 36.2798 14.0407 36.2633 14.0362C36.2485 14.0322 36.2338 14.0281 36.2189 14.0248C36.2024 14.0211 36.1857 14.0182 36.1689 14.0153C36.1531 14.0126 36.1373 14.01 36.1213 14.0081C36.1055 14.0062 36.0896 14.0049 36.0735 14.0037C36.0561 14.0025 36.0386 14.0014 36.0211 14.0011C36.014 14.0009 36.0071 14 36 14H12C11.9933 14 11.9868 14.0009 11.9801 14.001C11.9617 14.0014 11.9432 14.0024 11.9249 14.0038C11.9097 14.0049 11.8946 14.0061 11.8796 14.0079C11.8629 14.0099 11.8462 14.0127 11.8295 14.0156C11.8135 14.0183 11.7976 14.0211 11.782 14.0246C11.7662 14.0281 11.7507 14.0323 11.7351 14.0366C11.7194 14.041 11.7036 14.0452 11.6882 14.0503C11.6725 14.0554 11.6572 14.0613 11.6417 14.0673C11.6271 14.0729 11.6125 14.0784 11.5982 14.0846C11.5823 14.0916 11.5667 14.0995 11.5511 14.1074C11.538 14.114 11.5248 14.1204 11.5121 14.1275C11.4965 14.1363 11.4812 14.1459 11.4659 14.1556C11.4537 14.1633 11.4414 14.171 11.4296 14.1793C11.4152 14.1892 11.4014 14.1999 11.3875 14.2107C11.3752 14.2203 11.363 14.2299 11.3511 14.24C11.3388 14.2505 11.3269 14.2616 11.3149 14.2729C11.3023 14.2848 11.2899 14.2968 11.2779 14.3094C11.273 14.3145 11.2676 14.319 11.2628 14.3243C11.2571 14.3305 11.2524 14.3372 11.2469 14.3435C11.2352 14.3569 11.2239 14.3705 11.2129 14.3845C11.2032 14.397 11.1937 14.4095 11.1847 14.4223C11.175 14.4359 11.1658 14.4497 11.1569 14.4638C11.148 14.4777 11.1394 14.4917 11.1312 14.506C11.1234 14.5198 11.116 14.5338 11.1088 14.548C11.1013 14.563 11.0939 14.5779 11.087 14.5932C11.0806 14.6076 11.0747 14.6223 11.069 14.6371C11.0629 14.6526 11.0571 14.6681 11.0518 14.6839C11.0468 14.699 11.0424 14.7142 11.038 14.7296C11.0335 14.7458 11.0292 14.7619 11.0255 14.7782C11.0221 14.7934 11.0191 14.8088 11.0164 14.8243C11.0133 14.8415 11.0106 14.8587 11.0085 14.8759C11.0066 14.8908 11.0052 14.9057 11.004 14.9208C11.0026 14.9392 11.0016 14.9577 11.0012 14.9762C11.001 14.9842 11 14.9919 11 15V32C11.0006 32.5302 11.2115 33.0386 11.5865 33.4135C11.9614 33.7885 12.4698 33.9994 13 34H35C35.5302 33.9994 36.0386 33.7885 36.4135 33.4135C36.7885 33.0386 36.9994 32.5302 37 32V15C37 14.9919 36.999 14.9842 36.9988 14.9762ZM13 17.2733L20.3383 24L13 30.7267V17.2733ZM14.5709 32L21.8182 25.3567L23.3242 26.7372C23.5087 26.9062 23.7498 27 24 27C24.2502 27 24.4913 26.9062 24.6758 26.7372L26.1818 25.3566L33.4291 32H14.5709ZM27.6618 24L35.0002 17.2731L35.0012 30.7277L27.6618 24Z" fill="#0F172A"/>
</g>
<defs>
<filter id="filter0_d_138_936" x="0" y="0" width="50" height="50" filterUnits="userSpaceOnUse" color-interpolation-filters="sRGB">
<feFlood flood-opacity="0" result="BackgroundImageFix"/>
<feColorMatrix in="SourceAlpha" type="matrix" values="0 0 0 0 0 0 0 0 0 0 0 0 0 0 0 0 0 0 127 0" result="hardAlpha"/>
<feOffset dx="2" dy="2"/>
<feComposite in2="hardAlpha" operator="out"/>
<feColorMatrix type="matrix" values="0 0 0 0 1 0 0 0 0 1 0 0 0 0 1 0 0 0 1 0"/>
<feBlend mode="normal" in2="BackgroundImageFix" result="effect1_dropShadow_138_936"/>
<feBlend mode="normal" in="SourceGraphic" in2="effect1_dropShadow_138_936" result="shape"/>
</filter>
</defs>
</svg>
