<svg width="40" height="40" viewBox="0 0 40 40" fill="none" xmlns="http://www.w3.org/2000/svg">
<rect x="0.5" y="0.5" width="39" height="39" rx="19.5" stroke="white"/>
<path d="M20 12.6207C22.4047 12.6207 22.6895 12.6313 23.6352 12.6734C24.5141 12.7121 24.9887 12.8598 25.3051 12.9828C25.7234 13.1445 26.0258 13.3414 26.3387 13.6543C26.6551 13.9707 26.8484 14.2695 27.0102 14.6879C27.1332 15.0043 27.2809 15.4824 27.3195 16.3578C27.3617 17.307 27.3723 17.5918 27.3723 19.993C27.3723 22.3977 27.3617 22.6824 27.3195 23.6281C27.2809 24.507 27.1332 24.9816 27.0102 25.298C26.8484 25.7164 26.6516 26.0188 26.3387 26.3316C26.0223 26.648 25.7234 26.8414 25.3051 27.0031C24.9887 27.1262 24.5105 27.2738 23.6352 27.3125C22.6859 27.3547 22.4012 27.3652 20 27.3652C17.5953 27.3652 17.3105 27.3547 16.3648 27.3125C15.4859 27.2738 15.0113 27.1262 14.6949 27.0031C14.2766 26.8414 13.9742 26.6445 13.6613 26.3316C13.3449 26.0152 13.1516 25.7164 12.9898 25.298C12.8668 24.9816 12.7191 24.5035 12.6805 23.6281C12.6383 22.6789 12.6277 22.3941 12.6277 19.993C12.6277 17.5883 12.6383 17.3035 12.6805 16.3578C12.7191 15.4789 12.8668 15.0043 12.9898 14.6879C13.1516 14.2695 13.3484 13.9672 13.6613 13.6543C13.9777 13.3379 14.2766 13.1445 14.6949 12.9828C15.0113 12.8598 15.4895 12.7121 16.3648 12.6734C17.3105 12.6313 17.5953 12.6207 20 12.6207ZM20 11C17.5566 11 17.2508 11.0105 16.291 11.0527C15.3348 11.0949 14.6773 11.2496 14.1078 11.4711C13.5137 11.7031 13.0109 12.009 12.5117 12.5117C12.009 13.0109 11.7031 13.5137 11.4711 14.1043C11.2496 14.6773 11.0949 15.3313 11.0527 16.2875C11.0105 17.2508 11 17.5566 11 20C11 22.4434 11.0105 22.7492 11.0527 23.709C11.0949 24.6652 11.2496 25.3227 11.4711 25.8922C11.7031 26.4863 12.009 26.9891 12.5117 27.4883C13.0109 27.9875 13.5137 28.2969 14.1043 28.5254C14.6773 28.7469 15.3313 28.9016 16.2875 28.9438C17.2473 28.9859 17.5531 28.9965 19.9965 28.9965C22.4398 28.9965 22.7457 28.9859 23.7055 28.9438C24.6617 28.9016 25.3191 28.7469 25.8887 28.5254C26.4793 28.2969 26.982 27.9875 27.4813 27.4883C27.9805 26.9891 28.2898 26.4863 28.5184 25.8957C28.7398 25.3227 28.8945 24.6688 28.9367 23.7125C28.9789 22.7527 28.9895 22.4469 28.9895 20.0035C28.9895 17.5602 28.9789 17.2543 28.9367 16.2945C28.8945 15.3383 28.7398 14.6809 28.5184 14.1113C28.2969 13.5137 27.991 13.0109 27.4883 12.5117C26.9891 12.0125 26.4863 11.7031 25.8957 11.4746C25.3227 11.2531 24.6688 11.0984 23.7125 11.0563C22.7492 11.0105 22.4434 11 20 11Z" fill="white"/>
<path d="M19.998 15.377C17.4457 15.377 15.375 17.4477 15.375 20C15.375 22.5523 17.4457 24.623 19.998 24.623C22.5504 24.623 24.6211 22.5523 24.6211 20C24.6211 17.4477 22.5504 15.377 19.998 15.377ZM19.998 22.9988C18.3422 22.9988 16.9992 21.6559 16.9992 20C16.9992 18.3441 18.3422 17.0012 19.998 17.0012C21.6539 17.0012 22.9969 18.3441 22.9969 20C22.9969 21.6559 21.6539 22.9988 19.998 22.9988Z" fill="white"/>
<path d="M25.8852 15.1945C25.8852 15.7922 25.4 16.2738 24.8059 16.2738C24.2082 16.2738 23.7266 15.7887 23.7266 15.1945C23.7266 14.5969 24.2117 14.1152 24.8059 14.1152C25.4 14.1152 25.8852 14.6004 25.8852 15.1945Z" fill="white"/>
</svg>
