<svg width="40" height="40" viewBox="0 0 40 40" fill="none" xmlns="http://www.w3.org/2000/svg">
<rect x="0.5" y="0.5" width="39" height="39" rx="19.5" stroke="white"/>
<path d="M16.6626 27.3121C23.4534 27.3121 27.1687 21.6846 27.1687 16.806C27.1687 16.6478 27.1652 16.486 27.1582 16.3278C27.8809 15.8052 28.5046 15.1578 29 14.416C28.3269 14.7155 27.6122 14.9111 26.8804 14.9961C27.651 14.5343 28.2279 13.8087 28.5043 12.9539C27.7794 13.3835 26.9867 13.6865 26.1601 13.85C25.6031 13.2582 24.8667 12.8664 24.0648 12.7351C23.2628 12.6038 22.4399 12.7404 21.7233 13.1236C21.0067 13.5069 20.4364 14.1156 20.1004 14.8556C19.7644 15.5955 19.6816 16.4255 19.8646 17.2173C18.3969 17.1436 16.961 16.7624 15.65 16.0981C14.339 15.4339 13.1823 14.5017 12.2547 13.3617C11.7833 14.1745 11.639 15.1363 11.8513 16.0516C12.0635 16.967 12.6163 17.7672 13.3973 18.2896C12.811 18.2709 12.2375 18.1131 11.7242 17.829V17.8747C11.7237 18.7277 12.0186 19.5545 12.5587 20.2147C13.0989 20.8748 13.851 21.3275 14.6872 21.4958C14.144 21.6444 13.574 21.6661 13.0211 21.5591C13.2571 22.2927 13.7162 22.9342 14.3343 23.3943C14.9525 23.8544 15.6988 24.11 16.4693 24.1255C15.1613 25.1529 13.5456 25.7102 11.8824 25.7075C11.5875 25.7071 11.2928 25.689 11 25.6534C12.6896 26.7374 14.6551 27.3131 16.6626 27.3121Z" fill="white"/>
</svg>
