<svg width="129" height="34" viewBox="0 0 129 34" fill="none" xmlns="http://www.w3.org/2000/svg">
<g filter="url(#filter0_d_138_231)">
<rect width="32" height="32" rx="8" fill="#E95D3C" shape-rendering="crispEdges"/>
<path d="M11.3523 10.8182H14.0767V17.7983C14.0734 18.4612 13.906 19.0445 13.5746 19.5483C13.2464 20.0488 12.7924 20.4399 12.2124 20.7216C11.6357 21 10.9711 21.1392 10.2188 21.1392C9.56581 21.1392 8.96922 21.0265 8.42898 20.8011C7.88873 20.5724 7.45786 20.2145 7.13636 19.7273C6.81487 19.2367 6.65578 18.6004 6.65909 17.8182H9.4233C9.43324 18.0734 9.47633 18.2888 9.55256 18.4645C9.6321 18.6402 9.74148 18.7727 9.88068 18.8622C10.0232 18.9484 10.1955 18.9915 10.3977 18.9915C10.6032 18.9915 10.7756 18.9467 10.9148 18.8572C11.0573 18.7678 11.165 18.6352 11.2379 18.4595C11.3108 18.2805 11.349 18.0601 11.3523 17.7983V10.8182ZM15.6667 21V10.8182H18.4309V14.9347H18.5701L21.6326 10.8182H24.8542L21.4139 15.3523L24.9338 21H21.6326L19.3457 17.1818L18.4309 18.375V21H15.6667Z" fill="white"/>
</g>
<path d="M47.1733 8.45455H49.7869V18.6818C49.7822 19.6193 49.5833 20.4266 49.1903 21.1037C48.7973 21.776 48.2481 22.2945 47.5426 22.6591C46.8419 23.0189 46.0251 23.1989 45.0923 23.1989C44.2401 23.1989 43.473 23.0473 42.7912 22.7443C42.1141 22.4366 41.5767 21.982 41.179 21.3807C40.7813 20.7794 40.5824 20.0312 40.5824 19.1364H43.2031C43.2079 19.5294 43.2931 19.8679 43.4588 20.152C43.6293 20.4361 43.8636 20.6539 44.1619 20.8054C44.4602 20.9569 44.8035 21.0327 45.1918 21.0327C45.6132 21.0327 45.9706 20.9451 46.2642 20.7699C46.5578 20.59 46.7803 20.3248 46.9318 19.9744C47.0881 19.6241 47.1686 19.1932 47.1733 18.6818V8.45455ZM56.0712 23.2202C55.3799 23.2202 54.7572 23.0971 54.2033 22.8509C53.654 22.5999 53.2184 22.2306 52.8964 21.7429C52.5792 21.2552 52.4206 20.6539 52.4206 19.9389C52.4206 19.3234 52.5342 18.8144 52.7615 18.4119C52.9888 18.0095 53.2989 17.6875 53.6919 17.446C54.0849 17.2045 54.5276 17.0223 55.02 16.8991C55.5172 16.7713 56.0309 16.679 56.5612 16.6222C57.2004 16.5559 57.7189 16.4967 58.1166 16.4446C58.5143 16.3878 58.8032 16.3026 58.9831 16.1889C59.1678 16.0705 59.2601 15.8883 59.2601 15.642V15.5994C59.2601 15.0644 59.1015 14.6501 58.7842 14.3565C58.467 14.063 58.0101 13.9162 57.4135 13.9162C56.7838 13.9162 56.2842 14.0535 55.9149 14.3281C55.5503 14.6027 55.3041 14.9271 55.1763 15.3011L52.7757 14.9602C52.9651 14.2973 53.2776 13.7434 53.7132 13.2983C54.1488 12.8485 54.6815 12.5123 55.3112 12.2898C55.941 12.0625 56.637 11.9489 57.3993 11.9489C57.9249 11.9489 58.4481 12.0104 58.9689 12.1335C59.4897 12.2566 59.9656 12.4602 60.3964 12.7443C60.8273 13.0237 61.173 13.4048 61.4334 13.8878C61.6985 14.3707 61.8311 14.9744 61.8311 15.6989V23H59.3595V21.5014H59.2743C59.118 21.8045 58.8979 22.0885 58.6138 22.3537C58.3344 22.6141 57.9817 22.8248 57.5555 22.9858C57.1341 23.142 56.6393 23.2202 56.0712 23.2202ZM56.7388 21.331C57.2549 21.331 57.7023 21.2292 58.0811 21.0256C58.4599 20.8172 58.7511 20.5426 58.9547 20.2017C59.163 19.8608 59.2672 19.4891 59.2672 19.0866V17.8011C59.1867 17.8674 59.0494 17.929 58.8553 17.9858C58.6659 18.0426 58.4528 18.0923 58.2161 18.1349C57.9793 18.1776 57.7449 18.2154 57.5129 18.2486C57.2809 18.2817 57.0797 18.3101 56.9092 18.3338C56.5257 18.3859 56.1824 18.4711 55.8794 18.5895C55.5764 18.7079 55.3373 18.8736 55.1621 19.0866C54.9869 19.295 54.8993 19.5649 54.8993 19.8963C54.8993 20.3698 55.0721 20.7273 55.4178 20.9688C55.7634 21.2102 56.2037 21.331 56.7388 21.331ZM64.8163 23V12.0909H67.3874V23H64.8163ZM66.1089 10.5426C65.7018 10.5426 65.3514 10.4077 65.0578 10.1378C64.7643 9.86316 64.6175 9.53409 64.6175 9.15057C64.6175 8.76231 64.7643 8.43324 65.0578 8.16335C65.3514 7.88873 65.7018 7.75142 66.1089 7.75142C66.5209 7.75142 66.8713 7.88873 67.1601 8.16335C67.4536 8.43324 67.6004 8.76231 67.6004 9.15057C67.6004 9.53409 67.4536 9.86316 67.1601 10.1378C66.8713 10.4077 66.5209 10.5426 66.1089 10.5426ZM73.0022 16.608V23H70.4312V12.0909H72.8886V13.9446H73.0164C73.2674 13.3338 73.6674 12.8485 74.2167 12.4886C74.7707 12.1288 75.4549 11.9489 76.2692 11.9489C77.0221 11.9489 77.6779 12.1098 78.2366 12.4318C78.8 12.7538 79.2356 13.2202 79.5434 13.831C79.8559 14.4418 80.0098 15.1828 80.005 16.054V23H77.434V16.4517C77.434 15.7225 77.2446 15.152 76.8658 14.7401C76.4918 14.3281 75.9733 14.1222 75.3104 14.1222C74.8606 14.1222 74.4605 14.2216 74.1102 14.4205C73.7645 14.6146 73.4923 14.8963 73.2934 15.2656C73.0993 15.6349 73.0022 16.0824 73.0022 16.608ZM83.1323 23V8.45455H85.7673V15.1378H85.9448L91.6195 8.45455H94.8369L89.2119 14.9815L94.8866 23H91.719L87.3795 16.7642L85.7673 18.6676V23H83.1323ZM100.093 23.2202C99.4018 23.2202 98.7791 23.0971 98.2251 22.8509C97.6759 22.5999 97.2403 22.2306 96.9183 21.7429C96.6011 21.2552 96.4425 20.6539 96.4425 19.9389C96.4425 19.3234 96.5561 18.8144 96.7834 18.4119C97.0107 18.0095 97.3208 17.6875 97.7138 17.446C98.1068 17.2045 98.5495 17.0223 99.0419 16.8991C99.5391 16.7713 100.053 16.679 100.583 16.6222C101.222 16.5559 101.741 16.4967 102.138 16.4446C102.536 16.3878 102.825 16.3026 103.005 16.1889C103.19 16.0705 103.282 15.8883 103.282 15.642V15.5994C103.282 15.0644 103.123 14.6501 102.806 14.3565C102.489 14.063 102.032 13.9162 101.435 13.9162C100.806 13.9162 100.306 14.0535 99.9368 14.3281C99.5722 14.6027 99.326 14.9271 99.1982 15.3011L96.7976 14.9602C96.987 14.2973 97.2995 13.7434 97.7351 13.2983C98.1707 12.8485 98.7034 12.5123 99.3331 12.2898C99.9628 12.0625 100.659 11.9489 101.421 11.9489C101.947 11.9489 102.47 12.0104 102.991 12.1335C103.512 12.2566 103.987 12.4602 104.418 12.7443C104.849 13.0237 105.195 13.4048 105.455 13.8878C105.72 14.3707 105.853 14.9744 105.853 15.6989V23H103.381V21.5014H103.296C103.14 21.8045 102.92 22.0885 102.636 22.3537C102.356 22.6141 102.004 22.8248 101.577 22.9858C101.156 23.142 100.661 23.2202 100.093 23.2202ZM100.761 21.331C101.277 21.331 101.724 21.2292 102.103 21.0256C102.482 20.8172 102.773 20.5426 102.977 20.2017C103.185 19.8608 103.289 19.4891 103.289 19.0866V17.8011C103.209 17.8674 103.071 17.929 102.877 17.9858C102.688 18.0426 102.475 18.0923 102.238 18.1349C102.001 18.1776 101.767 18.2154 101.535 18.2486C101.303 18.2817 101.102 18.3101 100.931 18.3338C100.548 18.3859 100.204 18.4711 99.9013 18.5895C99.5982 18.7079 99.3591 18.8736 99.1839 19.0866C99.0088 19.295 98.9212 19.5649 98.9212 19.8963C98.9212 20.3698 99.094 20.7273 99.4396 20.9688C99.7853 21.2102 100.226 21.331 100.761 21.331ZM108.838 23V12.0909H111.331V13.9091H111.445C111.644 13.2794 111.985 12.794 112.467 12.4531C112.955 12.1075 113.512 11.9347 114.137 11.9347C114.279 11.9347 114.437 11.9418 114.612 11.956C114.792 11.9654 114.941 11.982 115.06 12.0057V14.3707C114.951 14.3329 114.778 14.2997 114.541 14.2713C114.309 14.2382 114.084 14.2216 113.867 14.2216C113.398 14.2216 112.976 14.3234 112.602 14.527C112.233 14.7259 111.942 15.0028 111.729 15.358C111.516 15.7131 111.409 16.1226 111.409 16.5866V23H108.838ZM119.739 16.608V23H117.168V12.0909H119.625V13.9446H119.753C120.004 13.3338 120.404 12.8485 120.953 12.4886C121.507 12.1288 122.192 11.9489 123.006 11.9489C123.759 11.9489 124.415 12.1098 124.973 12.4318C125.537 12.7538 125.972 13.2202 126.28 13.831C126.593 14.4418 126.746 15.1828 126.742 16.054V23H124.171V16.4517C124.171 15.7225 123.981 15.152 123.603 14.7401C123.229 14.3281 122.71 14.1222 122.047 14.1222C121.597 14.1222 121.197 14.2216 120.847 14.4205C120.501 14.6146 120.229 14.8963 120.03 15.2656C119.836 15.6349 119.739 16.0824 119.739 16.608Z" fill="#0F172A"/>
<defs>
<filter id="filter0_d_138_231" x="0" y="0" width="34" height="34" filterUnits="userSpaceOnUse" color-interpolation-filters="sRGB">
<feFlood flood-opacity="0" result="BackgroundImageFix"/>
<feColorMatrix in="SourceAlpha" type="matrix" values="0 0 0 0 0 0 0 0 0 0 0 0 0 0 0 0 0 0 127 0" result="hardAlpha"/>
<feOffset dx="2" dy="2"/>
<feComposite in2="hardAlpha" operator="out"/>
<feColorMatrix type="matrix" values="0 0 0 0 0.0666667 0 0 0 0 0.0666667 0 0 0 0 0.0666667 0 0 0 1 0"/>
<feBlend mode="normal" in2="BackgroundImageFix" result="effect1_dropShadow_138_231"/>
<feBlend mode="normal" in="SourceGraphic" in2="effect1_dropShadow_138_231" result="shape"/>
</filter>
</defs>
</svg>
