<svg width="64" height="64" viewBox="0 0 64 64" fill="none" xmlns="http://www.w3.org/2000/svg">
<rect width="64" height="64" rx="8" fill="white"/>
<path d="M46 40H45V23C44.9994 22.4698 44.7885 21.9614 44.4135 21.5865C44.0386 21.2115 43.5303 21.0006 43 21H21C20.4698 21.0006 19.9614 21.2115 19.5865 21.5865C19.2115 21.9614 19.0006 22.4698 19 23V40H18C17.7348 40 17.4804 40.1054 17.2929 40.2929C17.1054 40.4804 17 40.7348 17 41C17 41.2652 17.1054 41.5196 17.2929 41.7071C17.4804 41.8946 17.7348 42 18 42H46C46.2652 42 46.5196 41.8946 46.7071 41.7071C46.8946 41.5196 47 41.2652 47 41C47 40.7348 46.8946 40.4804 46.7071 40.2929C46.5196 40.1054 46.2652 40 46 40ZM43 40H34V38C34 37.8687 34.0259 37.7386 34.0761 37.6173C34.1264 37.496 34.2 37.3857 34.2929 37.2929C34.3858 37.2 34.496 37.1264 34.6173 37.0761C34.7386 37.0259 34.8687 37 35 37H42C42.1313 37 42.2614 37.0259 42.3827 37.0761C42.504 37.1264 42.6143 37.2 42.7071 37.2929C42.8 37.3857 42.8736 37.496 42.9239 37.6173C42.9741 37.7386 43 37.8687 43 38V40ZM43 34C43 34.2652 42.8946 34.5196 42.7071 34.7071C42.5196 34.8946 42.2652 35 42 35C41.7348 35 41.4804 34.8946 41.2929 34.7071C41.1054 34.5196 41 34.2652 41 34V25H23V39C23 39.2652 22.8946 39.5196 22.7071 39.7071C22.5196 39.8946 22.2652 40 22 40C21.7348 40 21.4804 39.8946 21.2929 39.7071C21.1054 39.5196 21 39.2652 21 39V24C21 23.7348 21.1054 23.4804 21.2929 23.2929C21.4804 23.1054 21.7348 23 22 23H42C42.2652 23 42.5196 23.1054 42.7071 23.2929C42.8946 23.4804 43 23.7348 43 24V34Z" fill="#0F172A"/>
</svg>
