<svg width="64" height="64" viewBox="0 0 64 64" fill="none" xmlns="http://www.w3.org/2000/svg">
<rect width="64" height="64" rx="8" fill="white"/>
<path d="M37.8107 34.667C37.9174 33.787 37.9974 32.907 37.9974 32.0003C37.9974 31.0937 37.9174 30.2137 37.8107 29.3337H42.3174C42.5307 30.187 42.6641 31.0803 42.6641 32.0003C42.6641 32.9203 42.5307 33.8137 42.3174 34.667M35.4507 42.0803C36.2507 40.6003 36.8641 39.0003 37.2907 37.3337H41.2241C39.9323 39.558 37.8829 41.243 35.4507 42.0803ZM35.1174 34.667H28.8774C28.7441 33.787 28.6641 32.907 28.6641 32.0003C28.6641 31.0937 28.7441 30.2003 28.8774 29.3337H35.1174C35.2374 30.2003 35.3307 31.0937 35.3307 32.0003C35.3307 32.907 35.2374 33.787 35.1174 34.667ZM31.9974 42.6137C30.8907 41.0137 29.9974 39.2403 29.4507 37.3337H34.5441C33.9974 39.2403 33.1041 41.0137 31.9974 42.6137ZM26.6641 26.667H22.7707C24.0492 24.4366 26.0971 22.749 28.5307 21.9203C27.7307 23.4003 27.1307 25.0003 26.6641 26.667ZM22.7707 37.3337H26.6641C27.1307 39.0003 27.7307 40.6003 28.5307 42.0803C26.1022 41.2425 24.0572 39.5573 22.7707 37.3337ZM21.6774 34.667C21.4641 33.8137 21.3307 32.9203 21.3307 32.0003C21.3307 31.0803 21.4641 30.187 21.6774 29.3337H26.1841C26.0774 30.2137 25.9974 31.0937 25.9974 32.0003C25.9974 32.907 26.0774 33.787 26.1841 34.667M31.9974 21.3737C33.1041 22.9737 33.9974 24.7603 34.5441 26.667H29.4507C29.9974 24.7603 30.8907 22.9737 31.9974 21.3737ZM41.2241 26.667H37.2907C36.8734 25.0156 36.2555 23.4215 35.4507 21.9203C37.9041 22.7603 39.9441 24.4537 41.2241 26.667ZM31.9974 18.667C24.6241 18.667 18.6641 24.667 18.6641 32.0003C18.6641 35.5365 20.0688 38.9279 22.5693 41.4284C23.8074 42.6665 25.2773 43.6487 26.8949 44.3187C28.5126 44.9888 30.2464 45.3337 31.9974 45.3337C35.5336 45.3337 38.925 43.9289 41.4255 41.4284C43.926 38.9279 45.3307 35.5365 45.3307 32.0003C45.3307 30.2494 44.9859 28.5156 44.3158 26.8979C43.6457 25.2802 42.6636 23.8103 41.4255 22.5722C40.1874 21.3341 38.7175 20.352 37.0998 19.6819C35.4822 19.0119 33.7484 18.667 31.9974 18.667Z" fill="#0F172A"/>
</svg>
