<svg width="64" height="64" viewBox="0 0 64 64" fill="none" xmlns="http://www.w3.org/2000/svg">
<rect width="64" height="64" rx="8" fill="white"/>
<path d="M21.3307 44C20.5974 44 19.9698 43.7391 19.4481 43.2173C18.9263 42.6956 18.665 42.0676 18.6641 41.3333V22.6667C18.6641 21.9333 18.9254 21.3058 19.4481 20.784C19.9707 20.2622 20.5983 20.0009 21.3307 20H39.9974C40.7307 20 41.3587 20.2613 41.8814 20.784C42.4041 21.3067 42.665 21.9342 42.6641 22.6667V25.3333H43.9974C44.3752 25.3333 44.6921 25.4613 44.9481 25.7173C45.2041 25.9733 45.3316 26.2898 45.3307 26.6667C45.3307 27.0444 45.2027 27.3613 44.9467 27.6173C44.6907 27.8733 44.3743 28.0009 43.9974 28H42.6641V30.6667H43.9974C44.3752 30.6667 44.6921 30.7947 44.9481 31.0507C45.2041 31.3067 45.3316 31.6231 45.3307 32C45.3307 32.3778 45.2027 32.6947 44.9467 32.9507C44.6907 33.2067 44.3743 33.3342 43.9974 33.3333H42.6641V36H43.9974C44.3752 36 44.6921 36.128 44.9481 36.384C45.2041 36.64 45.3316 36.9564 45.3307 37.3333C45.3307 37.7111 45.2027 38.028 44.9467 38.284C44.6907 38.54 44.3743 38.6676 43.9974 38.6667H42.6641V41.3333C42.6641 42.0667 42.4032 42.6947 41.8814 43.2173C41.3596 43.74 40.7316 44.0009 39.9974 44H21.3307ZM25.3307 38.6667H29.3307C29.7085 38.6667 30.0254 38.5387 30.2814 38.2827C30.5374 38.0267 30.665 37.7102 30.6641 37.3333V34.6667C30.6641 34.2889 30.5361 33.9724 30.2801 33.7173C30.0241 33.4622 29.7076 33.3342 29.3307 33.3333H25.3307C24.953 33.3333 24.6365 33.4613 24.3814 33.7173C24.1263 33.9733 23.9983 34.2898 23.9974 34.6667V37.3333C23.9974 37.7111 24.1254 38.028 24.3814 38.284C24.6374 38.54 24.9538 38.6676 25.3307 38.6667ZM33.3307 29.3333H35.9974C36.3752 29.3333 36.6921 29.2053 36.9481 28.9493C37.2041 28.6933 37.3316 28.3769 37.3307 28V26.6667C37.3307 26.2889 37.2027 25.9724 36.9467 25.7173C36.6907 25.4622 36.3743 25.3342 35.9974 25.3333H33.3307C32.953 25.3333 32.6365 25.4613 32.3814 25.7173C32.1263 25.9733 31.9983 26.2898 31.9974 26.6667V28C31.9974 28.3778 32.1254 28.6947 32.3814 28.9507C32.6374 29.2067 32.9538 29.3342 33.3307 29.3333ZM25.3307 32H29.3307C29.7085 32 30.0254 31.872 30.2814 31.616C30.5374 31.36 30.665 31.0436 30.6641 30.6667V26.6667C30.6641 26.2889 30.5361 25.9724 30.2801 25.7173C30.0241 25.4622 29.7076 25.3342 29.3307 25.3333H25.3307C24.953 25.3333 24.6365 25.4613 24.3814 25.7173C24.1263 25.9733 23.9983 26.2898 23.9974 26.6667V30.6667C23.9974 31.0444 24.1254 31.3613 24.3814 31.6173C24.6374 31.8733 24.9538 32.0009 25.3307 32ZM33.3307 38.6667H35.9974C36.3752 38.6667 36.6921 38.5387 36.9481 38.2827C37.2041 38.0267 37.3316 37.7102 37.3307 37.3333V32C37.3307 31.6222 37.2027 31.3058 36.9467 31.0507C36.6907 30.7956 36.3743 30.6676 35.9974 30.6667H33.3307C32.953 30.6667 32.6365 30.7947 32.3814 31.0507C32.1263 31.3067 31.9983 31.6231 31.9974 32V37.3333C31.9974 37.7111 32.1254 38.028 32.3814 38.284C32.6374 38.54 32.9538 38.6676 33.3307 38.6667Z" fill="#0F172A"/>
</svg>
