<svg width="41" height="40" viewBox="0 0 41 40" fill="none" xmlns="http://www.w3.org/2000/svg">
<rect x="0.914062" y="0.5" width="39" height="39" rx="6.16667" fill="white"/>
<rect x="0.914062" y="0.5" width="39" height="39" rx="6.16667" stroke="black"/>
<path d="M27.4948 6.66699H13.3281C9.87635 6.66699 7.07812 9.46521 7.07812 12.917V27.0837C7.07812 30.5354 9.87635 33.3337 13.3281 33.3337H27.4948C30.9466 33.3337 33.7448 30.5354 33.7448 27.0837V12.917C33.7448 9.46521 30.9466 6.66699 27.4948 6.66699Z" fill="#0277BD"/>
<path d="M12.6774 17.3605L12.9755 20.6877H20.4215V17.3605H12.6774ZM20.4214 10.626H12.0781L12.3806 13.9533H20.4214V10.626ZM20.4214 29.4636V26.0018L20.4068 26.0057L16.7011 25.0051L16.4643 22.3514H13.1242L13.5903 27.5758L20.406 29.4678L20.4214 29.4636Z" fill="#EBEBEB"/>
<path d="M24.5034 20.6877L24.1172 25.003L20.4062 26.0046V29.4662L27.2274 27.5758L27.2774 27.0136L28.0593 18.254L28.1404 17.3605L28.7411 10.626H20.4062V13.9533H25.0947L24.792 17.3605H20.4062V20.6877H24.5034Z" fill="white"/>
</svg>
