<svg width="40" height="40" viewBox="0 0 40 40" fill="none" xmlns="http://www.w3.org/2000/svg">
<rect x="0.5" y="0.5" width="39" height="39" rx="6.16667" fill="white"/>
<rect x="0.5" y="0.5" width="39" height="39" rx="6.16667" stroke="black"/>
<path d="M28.5454 28.8891H11.4824C11.3877 28.8888 11.297 28.8511 11.23 28.7841C11.163 28.7171 11.1253 28.6264 11.125 28.5317V11.4687C11.1253 11.374 11.163 11.2833 11.23 11.2163C11.297 11.1494 11.3877 11.1116 11.4824 11.1113H28.5454C28.6401 11.1116 28.7308 11.1494 28.7978 11.2163C28.8647 11.2833 28.9025 11.374 28.9028 11.4687V28.5317C28.9025 28.6264 28.8647 28.7171 28.7978 28.7841C28.7308 28.8511 28.6401 28.8888 28.5454 28.8891Z" fill="#FCEA2B"/>
<path d="M28.5297 28.8891H11.4668C11.3721 28.8888 11.2813 28.8511 11.2144 28.7841C11.1474 28.7171 11.1097 28.6264 11.1094 28.5317V11.4687C11.1097 11.374 11.1474 11.2833 11.2144 11.2163C11.2813 11.1494 11.3721 11.1116 11.4668 11.1113H28.5297C28.6244 11.1116 28.7152 11.1494 28.7821 11.2163C28.8491 11.2833 28.8869 11.374 28.8872 11.4687V28.5317C28.8869 28.6264 28.8491 28.7171 28.7821 28.7841C28.7152 28.8511 28.6244 28.8888 28.5297 28.8891Z" stroke="#0F172A" stroke-width="0.740741" stroke-linejoin="round"/>
<path d="M26.603 21.9722C26.4341 21.314 25.7034 20.8203 24.8278 20.8203C23.8267 20.8203 23.0156 21.4659 23.0156 22.2633C23.0156 23.0599 23.8271 23.7062 24.8278 23.7062L24.7908 23.7111C25.7919 23.7111 26.603 24.3573 26.603 25.154C26.603 25.9514 25.7916 26.597 24.7908 26.597C23.9153 26.597 23.1845 26.1022 23.0156 25.4444" stroke="#0F172A" stroke-width="1.64926" stroke-miterlimit="10" stroke-linecap="round" stroke-linejoin="round"/>
<path d="M20.2711 20.8203V24.5351C20.2713 24.934 20.1559 25.3244 19.9387 25.659C19.7216 25.9936 19.4121 26.258 19.0477 26.4202C18.6833 26.5825 18.2797 26.6356 17.8857 26.5731C17.4918 26.5106 17.1244 26.3352 16.8281 26.0681" stroke="#0F172A" stroke-width="1.65037" stroke-miterlimit="10" stroke-linecap="round" stroke-linejoin="round"/>
</svg>
