<svg width="40" height="40" viewBox="0 0 40 40" fill="none" xmlns="http://www.w3.org/2000/svg">
<rect x="0.5" y="0.5" width="39" height="39" rx="6.16667" fill="white"/>
<rect x="0.5" y="0.5" width="39" height="39" rx="6.16667" stroke="black"/>
<mask id="mask0_138_337" style="mask-type:luminance" maskUnits="userSpaceOnUse" x="6" y="6" width="28" height="28">
<path d="M6.66406 6.66699H33.3307V33.3337H6.66406V6.66699Z" fill="white"/>
</mask>
<g mask="url(#mask0_138_337)">
<path d="M12.3203 6.6748H13.5225V7.86258H14.6225V6.6748H15.8248V10.2704H14.6225V9.06703H13.5225V10.2704H12.3214L12.3203 6.6748ZM17.4048 7.86703H16.347V6.6748H19.6659V7.86703H18.607V10.2704H17.4048V7.86703ZM20.1925 6.6748H21.4459L22.217 7.93814L22.987 6.6748H24.2403V10.2704H23.0436V8.48814L22.217 9.76703H22.1959L21.3681 8.48925V10.2704H20.1925V6.6748ZM24.8381 6.6748H26.0414V9.08258H27.7303V10.2715H24.8381V6.6748Z" fill="#0F172A"/>
<path fill-rule="evenodd" clip-rule="evenodd" d="M12.2811 31.1671L10.0078 11.8838H30.0078L27.7334 31.1649L19.9967 33.3093L12.2811 31.1671ZM16.8778 20.6116L16.6623 18.1893H25.7123L25.9234 15.8249H14.0789L14.7167 22.9771H22.9134L22.6389 26.0438L20.0011 26.7571H19.9989L17.3656 26.046L17.1967 24.1605H14.8211L15.1523 27.8738L19.9967 29.2182L24.8489 27.8738L25.44 21.2471L25.4978 20.6127L16.8778 20.6116Z" fill="#0F172A"/>
</g>
</svg>
