<svg width="40" height="40" viewBox="0 0 40 40" fill="none" xmlns="http://www.w3.org/2000/svg">
<rect x="0.5" y="0.5" width="39" height="39" rx="6.16667" fill="white"/>
<rect x="0.5" y="0.5" width="39" height="39" rx="6.16667" stroke="black"/>
<path fill-rule="evenodd" clip-rule="evenodd" d="M7.78125 19.9996C7.78125 13.2496 13.2535 7.77734 20.0035 7.77734C26.7535 7.77734 32.2257 13.2496 32.2257 19.9996C32.2257 26.7496 26.7535 32.2218 20.0035 32.2218C13.2535 32.2218 7.78125 26.7496 7.78125 19.9996ZM23.1146 17.1107C22.9378 16.8749 22.6746 16.7191 22.3828 16.6774C22.0911 16.6357 21.7948 16.7116 21.559 16.8885C21.3233 17.0653 21.1674 17.3285 21.1257 17.6202C21.0841 17.9119 21.16 18.2083 21.3368 18.444L22.5035 19.9996L21.3368 21.5551C21.16 21.7909 21.0841 22.0872 21.1257 22.3789C21.1674 22.6706 21.3233 22.9339 21.559 23.1107C21.7948 23.2875 22.0911 23.3634 22.3828 23.3217C22.6746 23.2801 22.9378 23.1242 23.1146 22.8885L23.8924 21.8518L24.6701 22.8885C24.847 23.1242 25.1102 23.2801 25.4019 23.3217C25.5463 23.3424 25.6934 23.3343 25.8348 23.2981C25.9761 23.2619 26.109 23.1982 26.2257 23.1107C26.3424 23.0231 26.4408 22.9134 26.5151 22.7879C26.5895 22.6623 26.6383 22.5234 26.659 22.3789C26.6796 22.2345 26.6716 22.0874 26.6354 21.946C26.5992 21.8047 26.5355 21.6719 26.4479 21.5551L25.2812 19.9996L26.4479 18.444C26.6247 18.2083 26.7006 17.9119 26.659 17.6202C26.6173 17.3285 26.4614 17.0653 26.2257 16.8885C26.109 16.8009 25.9761 16.7372 25.8348 16.701C25.6934 16.6648 25.5463 16.6568 25.4019 16.6774C25.1102 16.7191 24.847 16.8749 24.6701 17.1107L23.8924 18.1473L23.1146 17.1107ZM15.559 17.7773C15.559 17.4827 15.442 17.2 15.2336 16.9917C15.0252 16.7833 14.7426 16.6662 14.4479 16.6662C14.1532 16.6662 13.8706 16.7833 13.6622 16.9917C13.4539 17.2 13.3368 17.4827 13.3368 17.7773V19.9996C13.3368 20.5473 13.4924 21.3451 13.9901 22.0373C14.5301 22.7885 15.419 23.3329 16.6701 23.3329C17.9212 23.3329 18.8101 22.7862 19.3501 22.0373C19.8479 21.3451 20.0035 20.5485 20.0035 19.9996V17.7773C20.0035 17.4827 19.8864 17.2 19.678 16.9917C19.4697 16.7833 19.187 16.6662 18.8924 16.6662C18.5977 16.6662 18.3151 16.7833 18.1067 16.9917C17.8983 17.2 17.7812 17.4827 17.7812 17.7773V19.9996C17.7812 20.1918 17.7146 20.5062 17.5457 20.7396C17.419 20.9162 17.1968 21.1107 16.6701 21.1107C16.1435 21.1107 15.9212 20.9162 15.7946 20.7396C15.6467 20.5206 15.5649 20.2637 15.559 19.9996V17.7773Z" fill="#0F172A"/>
</svg>
