<svg width="41" height="40" viewBox="0 0 41 40" fill="none" xmlns="http://www.w3.org/2000/svg">
<rect x="0.914062" y="0.5" width="39" height="39" rx="6.16667" fill="white"/>
<rect x="0.914062" y="0.5" width="39" height="39" rx="6.16667" stroke="black"/>
<path d="M27.4948 6.66699H13.3281C9.87635 6.66699 7.07812 9.46521 7.07812 12.917V27.0837C7.07812 30.5354 9.87635 33.3337 13.3281 33.3337H27.4948C30.9466 33.3337 33.7448 30.5354 33.7448 27.0837V12.917C33.7448 9.46521 30.9466 6.66699 27.4948 6.66699Z" fill="#242938"/>
<path d="M20.4121 21.9775C21.4854 21.9775 22.3554 21.1074 22.3554 20.0342C22.3554 18.9609 21.4854 18.0908 20.4121 18.0908C19.3389 18.0908 18.4688 18.9609 18.4688 20.0342C18.4688 21.1074 19.3389 21.9775 20.4121 21.9775Z" fill="#00D8FF"/>
<path d="M20.4169 16.0791C23.026 16.0791 25.4499 16.4535 27.2775 17.0827C29.4795 17.8408 30.8333 18.9898 30.8333 20.0304C30.8333 21.1146 29.3985 22.3354 27.0339 23.1188C25.2461 23.7111 22.8936 24.0202 20.4169 24.0202C17.8775 24.0202 15.4728 23.73 13.6649 23.1122C11.3776 22.3305 10 21.094 10 20.0304C10 18.9983 11.2927 17.8581 13.4637 17.1012C15.2981 16.4616 17.7818 16.0791 20.4165 16.0791H20.4169Z" stroke="#00D8FF" stroke-width="0.928229"/>
<path d="M16.9752 18.0661C18.2787 15.8059 19.8138 13.8932 21.272 12.6245C23.0286 11.0956 24.7005 10.4969 25.6018 11.0165C26.541 11.5582 26.8818 13.4111 26.3791 15.8509C25.9995 17.6954 25.0918 19.8877 23.8544 22.0333C22.5857 24.2331 21.1331 26.1712 19.6949 27.4283C17.875 29.0192 16.1155 29.5949 15.1941 29.0635C14.3001 28.5483 13.9582 26.8586 14.3872 24.5998C14.7496 22.6911 15.659 20.3485 16.9748 18.0661H16.9752Z" stroke="#00D8FF" stroke-width="0.928229"/>
<path d="M16.973 22.0414C15.6658 19.7837 14.7758 17.4981 14.4044 15.6012C13.9572 13.3157 14.2733 11.5683 15.1738 11.047C16.1123 10.5037 17.8876 11.1339 19.7503 12.7878C21.1586 14.0383 22.6048 15.9192 23.8457 18.0627C25.118 20.2605 26.0715 22.487 26.4425 24.3608C26.9119 26.732 26.532 28.5438 25.6114 29.0766C24.7183 29.5937 23.0838 29.0463 21.341 27.5465C19.8685 26.2794 18.2931 24.3216 16.973 22.0414Z" stroke="#00D8FF" stroke-width="0.928229"/>
</svg>
