<svg width="40" height="40" viewBox="0 0 40 40" fill="none" xmlns="http://www.w3.org/2000/svg">
<rect x="0.5" y="0.5" width="39" height="39" rx="19.5" stroke="white"/>
<path d="M28.8207 16.3996C28.8207 16.3996 28.6449 15.1586 28.1035 14.6137C27.418 13.8965 26.6516 13.893 26.3 13.8508C23.7828 13.668 20.0035 13.668 20.0035 13.668H19.9965C19.9965 13.668 16.2172 13.668 13.7 13.8508C13.3484 13.893 12.582 13.8965 11.8965 14.6137C11.3551 15.1586 11.1828 16.3996 11.1828 16.3996C11.1828 16.3996 11 17.8586 11 19.3141V20.6781C11 22.1336 11.1793 23.5926 11.1793 23.5926C11.1793 23.5926 11.3551 24.8336 11.893 25.3785C12.5785 26.0957 13.4785 26.0711 13.8793 26.1484C15.3207 26.2855 20 26.3277 20 26.3277C20 26.3277 23.7828 26.3207 26.3 26.1414C26.6516 26.0992 27.418 26.0957 28.1035 25.3785C28.6449 24.8336 28.8207 23.5926 28.8207 23.5926C28.8207 23.5926 29 22.1371 29 20.6781V19.3141C29 17.8586 28.8207 16.3996 28.8207 16.3996ZM18.1402 22.334V17.275L23.0023 19.8133L18.1402 22.334Z" fill="white"/>
</svg>
