<svg width="40" height="40" viewBox="0 0 40 40" fill="none" xmlns="http://www.w3.org/2000/svg">
<rect x="0.5" y="0.5" width="39" height="39" rx="19.5" stroke="white"/>
<path d="M29 20C29 15.0294 24.9706 11 20 11C15.0294 11 11 15.0294 11 20C11 24.4921 14.2912 28.2155 18.5938 28.8907V22.6016H16.3086V20H18.5938V18.0172C18.5938 15.7616 19.9374 14.5156 21.9932 14.5156C22.9776 14.5156 24.0078 14.6914 24.0078 14.6914V16.9063H22.873C21.755 16.9063 21.4063 17.6001 21.4063 18.3125V20H23.9023L23.5033 22.6016H21.4063V28.8907C25.7088 28.2155 29 24.4921 29 20Z" fill="white"/>
</svg>
